<svg xmlns:xlink="http://www.w3.org/1999/xlink" xmlns="http://www.w3.org/2000/svg" width="64" height="64" viewBox="0 0 24 24" class="hitagi__sc-1apuy4g-0 caNCye"><path d="M12 7.504c-2.477 0-4.495 2.019-4.495 4.496s2.018 4.496 4.496 4.496 4.495-2.019 4.495-4.496-2.018-4.496-4.495-4.496zm11.54 3.77L19.104 9.06l1.568-4.701c.211-.637-.393-1.241-1.025-1.026l-4.702 1.569-2.22-4.44a.81.81 0 0 0-1.451 0L9.06 4.896 4.353 3.327c-.636-.21-1.24.394-1.025 1.026l1.569 4.701-4.435 2.22a.81.81 0 0 0 0 1.452l4.435 2.215-1.57 4.706c-.21.637.394 1.241 1.026 1.026l4.702-1.57 2.215 4.436a.811.811 0 0 0 1.452 0l2.215-4.435 4.701 1.569c.637.21 1.241-.394 1.026-1.026l-1.569-4.701 4.435-2.215a.812.812 0 0 0 .01-1.457zm-7.301 4.964a6 6 0 0 1-8.476 0 6 6 0 0 1 0-8.476 6 6 0 0 1 8.476 0 6 6 0 0 1 0 8.476z" fill="#E5B362"></path></svg>