<svg xmlns:xlink="http://www.w3.org/1999/xlink" xmlns="http://www.w3.org/2000/svg" fill="currentcolor" viewBox="0 0 144 144" width="144"  height="144" ><path d="M 0,18 c 0,-9 9,-18 18, -18 h 108 c 9,0 18,9 18,18 v 108 c 0,9 -9,18 -18,18 h -108 c -9,0 -18,-9 -18,-18 z
    M 36 18 c -9,0 -18,9 -18,18 c 0,9 9,18 18,18 c 9,0 18,-9 18,-18 c 0,-9 -9,-18 -18,-18 z
    M 108 18 c -9,0 -18,9 -18,18 c 0,9 9,18 18,18 c 9,0 18,-9 18,-18 c 0,-9 -9,-18 -18,-18 z
    M 36 90 c -9,0 -18,9 -18,18 c 0,9 9,18 18,18 c 9,0 18,-9 18,-18 c 0,-9 -9,-18 -18,-18 z
    M 108 90 c -9,0 -18,9 -18,18 c 0,9 9,18 18,18 c 9,0 18,-9 18,-18 c 0,-9 -9,-18 -18,-18 z
    M 72 54 c -9,0 -18,9 -18,18 c 0,9 9,18 18,18 c 9,0 18,-9 18,-18 c 0,-9 -9,-18 -18,-18 z" fill-opacity="0.6" fill="#FFFFFF"></path></svg>